<svg xmlns="http://www.w3.org/2000/svg" xmlns:xlink="http://www.w3.org/1999/xlink" width="869" zoomAndPan="magnify" viewBox="0 0 651.75 173.999997" height="232" preserveAspectRatio="xMidYMid meet" version="1.0"><defs><g/></defs><g fill="#ffffff" fill-opacity="1"><g transform="translate(33.956874, 109.986722)"><g><path d="M 44.28125 -27.765625 L 18.921875 -27.765625 L 18.921875 -10.609375 L 48.671875 -10.609375 L 48.671875 0 L 5.71875 0 L 5.71875 -64.078125 L 48.59375 -64.078125 L 48.59375 -53.390625 L 18.921875 -53.390625 L 18.921875 -38.109375 L 44.28125 -38.109375 Z M 44.28125 -27.765625 "/></g></g></g><g fill="#ffffff" fill-opacity="1"><g transform="translate(84.65471, 109.986722)"><g><path d="M 23.015625 -33.40625 L 31.03125 -47.625 L 44.625 -47.625 L 31.078125 -24.296875 L 45.203125 0 L 31.5625 0 L 23.0625 -14.96875 L 14.609375 0 L 0.921875 0 L 15.046875 -24.296875 L 1.546875 -47.625 L 15.1875 -47.625 Z M 23.015625 -33.40625 "/></g></g></g><g fill="#ffffff" fill-opacity="1"><g transform="translate(130.511607, 109.986722)"><g><path d="M 20.109375 -59.328125 L 20.109375 -47.625 L 28.25 -47.625 L 28.25 -38.296875 L 20.109375 -38.296875 L 20.109375 -14.53125 C 20.109375 -12.769531 20.445312 -11.503906 21.125 -10.734375 C 21.800781 -9.972656 23.09375 -9.59375 25 -9.59375 C 26.40625 -9.59375 27.648438 -9.695312 28.734375 -9.90625 L 28.734375 -0.265625 C 26.242188 0.492188 23.675781 0.875 21.03125 0.875 C 12.113281 0.875 7.566406 -3.625 7.390625 -12.625 L 7.390625 -38.296875 L 0.4375 -38.296875 L 0.4375 -47.625 L 7.390625 -47.625 L 7.390625 -59.328125 Z M 20.109375 -59.328125 "/></g></g></g><g fill="#ffffff" fill-opacity="1"><g transform="translate(160.965516, 109.986722)"><g><path d="M 26.796875 0.875 C 19.816406 0.875 14.132812 -1.265625 9.75 -5.546875 C 5.363281 -9.828125 3.171875 -15.535156 3.171875 -22.671875 L 3.171875 -23.90625 C 3.171875 -28.6875 4.09375 -32.960938 5.9375 -36.734375 C 7.789062 -40.503906 10.410156 -43.40625 13.796875 -45.4375 C 17.179688 -47.476562 21.046875 -48.5 25.390625 -48.5 C 31.910156 -48.5 37.039062 -46.441406 40.78125 -42.328125 C 44.519531 -38.222656 46.390625 -32.40625 46.390625 -24.875 L 46.390625 -19.671875 L 16.0625 -19.671875 C 16.476562 -16.566406 17.71875 -14.070312 19.78125 -12.1875 C 21.851562 -10.3125 24.472656 -9.375 27.640625 -9.375 C 32.535156 -9.375 36.363281 -11.148438 39.125 -14.703125 L 45.375 -7.703125 C 43.46875 -5.003906 40.882812 -2.898438 37.625 -1.390625 C 34.375 0.117188 30.765625 0.875 26.796875 0.875 Z M 25.359375 -38.203125 C 22.828125 -38.203125 20.773438 -37.347656 19.203125 -35.640625 C 17.640625 -33.941406 16.640625 -31.507812 16.203125 -28.34375 L 33.890625 -28.34375 L 33.890625 -29.359375 C 33.828125 -32.171875 33.0625 -34.347656 31.59375 -35.890625 C 30.132812 -37.429688 28.054688 -38.203125 25.359375 -38.203125 Z M 25.359375 -38.203125 "/></g></g></g><g fill="#ffffff" fill-opacity="1"><g transform="translate(209.682968, 109.986722)"><g><path d="M 16.59375 -47.625 L 16.984375 -42.125 C 20.390625 -46.375 24.953125 -48.5 30.671875 -48.5 C 35.722656 -48.5 39.476562 -47.015625 41.9375 -44.046875 C 44.40625 -41.085938 45.671875 -36.660156 45.734375 -30.765625 L 45.734375 0 L 33.015625 0 L 33.015625 -30.453125 C 33.015625 -33.148438 32.425781 -35.109375 31.25 -36.328125 C 30.070312 -37.546875 28.117188 -38.15625 25.390625 -38.15625 C 21.816406 -38.15625 19.132812 -36.628906 17.34375 -33.578125 L 17.34375 0 L 4.625 0 L 4.625 -47.625 Z M 16.59375 -47.625 "/></g></g></g><g fill="#ffffff" fill-opacity="1"><g transform="translate(260.160762, 109.986722)"><g><path d="M 30.671875 -13.15625 C 30.671875 -14.71875 29.898438 -15.941406 28.359375 -16.828125 C 26.828125 -17.722656 24.359375 -18.523438 20.953125 -19.234375 C 9.628906 -21.609375 3.96875 -26.421875 3.96875 -33.671875 C 3.96875 -37.898438 5.71875 -41.425781 9.21875 -44.25 C 12.726562 -47.082031 17.3125 -48.5 22.96875 -48.5 C 29.019531 -48.5 33.851562 -47.078125 37.46875 -44.234375 C 41.09375 -41.390625 42.90625 -37.691406 42.90625 -33.140625 L 30.1875 -33.140625 C 30.1875 -34.960938 29.597656 -36.46875 28.421875 -37.65625 C 27.253906 -38.84375 25.425781 -39.4375 22.9375 -39.4375 C 20.789062 -39.4375 19.128906 -38.953125 17.953125 -37.984375 C 16.785156 -37.015625 16.203125 -35.78125 16.203125 -34.28125 C 16.203125 -32.875 16.867188 -31.738281 18.203125 -30.875 C 19.535156 -30.007812 21.785156 -29.257812 24.953125 -28.625 C 28.117188 -28 30.789062 -27.289062 32.96875 -26.5 C 39.6875 -24.03125 43.046875 -19.757812 43.046875 -13.6875 C 43.046875 -9.34375 41.179688 -5.828125 37.453125 -3.140625 C 33.722656 -0.460938 28.910156 0.875 23.015625 0.875 C 19.023438 0.875 15.484375 0.164062 12.390625 -1.25 C 9.296875 -2.675781 6.867188 -4.628906 5.109375 -7.109375 C 3.347656 -9.585938 2.46875 -12.265625 2.46875 -15.140625 L 14.53125 -15.140625 C 14.644531 -12.878906 15.476562 -11.144531 17.03125 -9.9375 C 18.582031 -8.738281 20.664062 -8.140625 23.28125 -8.140625 C 25.71875 -8.140625 27.554688 -8.601562 28.796875 -9.53125 C 30.046875 -10.457031 30.671875 -11.664062 30.671875 -13.15625 Z M 30.671875 -13.15625 "/></g></g></g><g fill="#ffffff" fill-opacity="1"><g transform="translate(306.501764, 109.986722)"><g><path d="M 18.3125 0 L 5.546875 0 L 5.546875 -47.625 L 18.3125 -47.625 Z M 4.796875 -59.953125 C 4.796875 -61.859375 5.429688 -63.425781 6.703125 -64.65625 C 7.984375 -65.882812 9.722656 -66.5 11.921875 -66.5 C 14.097656 -66.5 15.832031 -65.882812 17.125 -64.65625 C 18.414062 -63.425781 19.0625 -61.859375 19.0625 -59.953125 C 19.0625 -58.015625 18.40625 -56.425781 17.09375 -55.1875 C 15.789062 -53.957031 14.066406 -53.34375 11.921875 -53.34375 C 9.785156 -53.34375 8.0625 -53.957031 6.75 -55.1875 C 5.445312 -56.425781 4.796875 -58.015625 4.796875 -59.953125 Z M 4.796875 -59.953125 "/></g></g></g><g fill="#ffffff" fill-opacity="1"><g transform="translate(330.39839, 109.986722)"><g><path d="M 2.90625 -24.25 C 2.90625 -28.976562 3.8125 -33.1875 5.625 -36.875 C 7.445312 -40.570312 10.066406 -43.429688 13.484375 -45.453125 C 16.910156 -47.484375 20.878906 -48.5 25.390625 -48.5 C 31.816406 -48.5 37.0625 -46.53125 41.125 -42.59375 C 45.195312 -38.664062 47.46875 -33.328125 47.9375 -26.578125 L 48.015625 -23.328125 C 48.015625 -16.023438 45.972656 -10.164062 41.890625 -5.75 C 37.816406 -1.332031 32.347656 0.875 25.484375 0.875 C 18.617188 0.875 13.140625 -1.320312 9.046875 -5.71875 C 4.953125 -10.125 2.90625 -16.109375 2.90625 -23.671875 Z M 15.625 -23.328125 C 15.625 -18.804688 16.472656 -15.347656 18.171875 -12.953125 C 19.878906 -10.566406 22.316406 -9.375 25.484375 -9.375 C 28.566406 -9.375 30.972656 -10.554688 32.703125 -12.921875 C 34.429688 -15.285156 35.296875 -19.0625 35.296875 -24.25 C 35.296875 -28.675781 34.429688 -32.109375 32.703125 -34.546875 C 30.972656 -36.984375 28.535156 -38.203125 25.390625 -38.203125 C 22.285156 -38.203125 19.878906 -36.988281 18.171875 -34.5625 C 16.472656 -32.144531 15.625 -28.398438 15.625 -23.328125 Z M 15.625 -23.328125 "/></g></g></g><g fill="#ffffff" fill-opacity="1"><g transform="translate(381.360277, 109.986722)"><g><path d="M 16.59375 -47.625 L 16.984375 -42.125 C 20.390625 -46.375 24.953125 -48.5 30.671875 -48.5 C 35.722656 -48.5 39.476562 -47.015625 41.9375 -44.046875 C 44.40625 -41.085938 45.671875 -36.660156 45.734375 -30.765625 L 45.734375 0 L 33.015625 0 L 33.015625 -30.453125 C 33.015625 -33.148438 32.425781 -35.109375 31.25 -36.328125 C 30.070312 -37.546875 28.117188 -38.15625 25.390625 -38.15625 C 21.816406 -38.15625 19.132812 -36.628906 17.34375 -33.578125 L 17.34375 0 L 4.625 0 L 4.625 -47.625 Z M 16.59375 -47.625 "/></g></g></g><g fill="#ffffff" fill-opacity="1"><g transform="translate(431.838082, 109.986722)"><g/></g></g><g fill="#ffffff" fill-opacity="1"><g transform="translate(454.282413, 109.986722)"><g><path d="M 15.3125 11.890625 L 7.609375 11.890625 L 7.609375 -64.078125 L 15.3125 -64.078125 Z M 15.3125 11.890625 "/></g></g></g><g fill="#ffffff" fill-opacity="1"><g transform="translate(477.078813, 109.986722)"><g/></g></g><g fill="#ffffff" fill-opacity="1"><g transform="translate(499.523145, 109.986722)"><g><path d="M 58.359375 -30.59375 C 58.359375 -24.28125 57.242188 -18.742188 55.015625 -13.984375 C 52.785156 -9.234375 49.59375 -5.566406 45.4375 -2.984375 C 41.289062 -0.410156 36.53125 0.875 31.15625 0.875 C 25.851562 0.875 21.117188 -0.398438 16.953125 -2.953125 C 12.785156 -5.503906 9.554688 -9.148438 7.265625 -13.890625 C 4.972656 -18.628906 3.8125 -24.078125 3.78125 -30.234375 L 3.78125 -33.40625 C 3.78125 -39.71875 4.914062 -45.269531 7.1875 -50.0625 C 9.46875 -54.863281 12.679688 -58.546875 16.828125 -61.109375 C 20.984375 -63.679688 25.726562 -64.96875 31.0625 -64.96875 C 36.40625 -64.96875 41.15625 -63.679688 45.3125 -61.109375 C 49.46875 -58.546875 52.679688 -54.863281 54.953125 -50.0625 C 57.222656 -45.269531 58.359375 -39.734375 58.359375 -33.453125 Z M 44.984375 -33.5 C 44.984375 -40.21875 43.78125 -45.320312 41.375 -48.8125 C 38.96875 -52.300781 35.535156 -54.046875 31.078125 -54.046875 C 26.640625 -54.046875 23.21875 -52.320312 20.8125 -48.875 C 18.40625 -45.425781 17.191406 -40.375 17.171875 -33.71875 L 17.171875 -30.59375 C 17.171875 -24.050781 18.375 -18.972656 20.78125 -15.359375 C 23.1875 -11.753906 26.644531 -9.953125 31.15625 -9.953125 C 35.59375 -9.953125 39 -11.6875 41.375 -15.15625 C 43.75 -18.632812 44.953125 -23.707031 44.984375 -30.375 Z M 44.984375 -33.5 "/></g></g></g><g fill="#ffffff" fill-opacity="1"><g transform="translate(561.751195, 109.986722)"><g><path d="M 38.953125 -16.8125 C 38.953125 -19.300781 38.070312 -21.210938 36.3125 -22.546875 C 34.550781 -23.890625 31.378906 -25.300781 26.796875 -26.78125 C 22.222656 -28.257812 18.601562 -29.71875 15.9375 -31.15625 C 8.65625 -35.09375 5.015625 -40.390625 5.015625 -47.046875 C 5.015625 -50.515625 5.988281 -53.601562 7.9375 -56.3125 C 9.894531 -59.03125 12.695312 -61.148438 16.34375 -62.671875 C 20 -64.203125 24.101562 -64.96875 28.65625 -64.96875 C 33.226562 -64.96875 37.304688 -64.132812 40.890625 -62.46875 C 44.472656 -60.8125 47.253906 -58.472656 49.234375 -55.453125 C 51.210938 -52.429688 52.203125 -49 52.203125 -45.15625 L 39 -45.15625 C 39 -48.09375 38.070312 -50.375 36.21875 -52 C 34.375 -53.625 31.78125 -54.4375 28.4375 -54.4375 C 25.207031 -54.4375 22.695312 -53.753906 20.90625 -52.390625 C 19.113281 -51.035156 18.21875 -49.238281 18.21875 -47 C 18.21875 -44.914062 19.265625 -43.171875 21.359375 -41.765625 C 23.460938 -40.359375 26.554688 -39.039062 30.640625 -37.8125 C 38.148438 -35.550781 43.617188 -32.75 47.046875 -29.40625 C 50.484375 -26.0625 52.203125 -21.894531 52.203125 -16.90625 C 52.203125 -11.351562 50.101562 -7 45.90625 -3.84375 C 41.707031 -0.695312 36.0625 0.875 28.96875 0.875 C 24.03125 0.875 19.535156 -0.0234375 15.484375 -1.828125 C 11.441406 -3.628906 8.351562 -6.097656 6.21875 -9.234375 C 4.09375 -12.378906 3.03125 -16.019531 3.03125 -20.15625 L 16.28125 -20.15625 C 16.28125 -13.082031 20.507812 -9.546875 28.96875 -9.546875 C 32.101562 -9.546875 34.550781 -10.179688 36.3125 -11.453125 C 38.070312 -12.734375 38.953125 -14.519531 38.953125 -16.8125 Z M 38.953125 -16.8125 "/></g></g></g></svg>